<svg width="40" height="40" viewBox="0 0 40 40" fill="none" xmlns="http://www.w3.org/2000/svg">
<rect width="40" height="40" rx="5" fill="#A7F381"/>
<path d="M12.4513 25H10.3093L13.5732 15.5455H16.1491L19.4084 25H17.2663L14.8981 17.706H14.8242L12.4513 25ZM12.3175 21.2837H17.3771V22.8441H12.3175V21.2837ZM23.8979 25H20.5463V15.5455H23.9256C24.8766 15.5455 25.6953 15.7347 26.3816 16.1133C27.0679 16.4888 27.5957 17.0289 27.965 17.7337C28.3374 18.4384 28.5236 19.2817 28.5236 20.2635C28.5236 21.2483 28.3374 22.0947 27.965 22.8026C27.5957 23.5104 27.0648 24.0536 26.3723 24.4322C25.6829 24.8107 24.8581 25 23.8979 25ZM22.5453 23.2873H23.8148C24.4057 23.2873 24.9028 23.1826 25.3059 22.9734C25.7122 22.761 26.0169 22.4332 26.22 21.9901C26.4262 21.5438 26.5293 20.9683 26.5293 20.2635C26.5293 19.5649 26.4262 18.994 26.22 18.5508C26.0169 18.1076 25.7137 17.7814 25.3105 17.5721C24.9074 17.3628 24.4103 17.2582 23.8194 17.2582H22.5453V23.2873Z" fill="#377207"/>
</svg>
