
<svg width="1042" height="684" viewBox="0 0 1042 684" fill="none" xmlns="http://www.w3.org/2000/svg">
<path d="M193.063 7.53267C187.73 16.5993 161.73 60.3327 159.73 63.666C158.797 65.1327 157.463 67.5327 156.797 68.9993C155.997 70.466 153.997 73.9327 152.397 76.5993C150.663 79.266 146.397 86.3327 142.93 92.3327C136.53 103.133 136.53 103.266 138.93 106.599C140.263 108.466 141.997 110.999 142.663 112.066C143.463 113.266 146.797 118.066 150.13 122.999C153.463 127.799 160.663 138.333 166.263 146.333C171.73 154.466 178.797 164.866 182.13 169.399C185.33 174.066 188.93 179.266 189.997 180.866C193.33 185.933 197.063 191.399 200.797 196.733L204.397 201.666L207.997 194.733C209.997 190.866 213.197 185.399 215.063 182.333C217.063 179.399 219.997 174.333 221.73 170.999C223.597 167.666 225.73 164.066 226.53 162.999C227.33 161.933 228.797 159.533 229.73 157.799C230.797 156.066 232.797 152.466 234.263 149.799C235.863 147.133 238.53 142.333 240.397 138.999C242.263 135.666 244.797 131.533 245.997 129.666C247.197 127.799 250.263 122.733 252.663 118.333C255.063 113.933 258.53 108.066 260.397 105.266L263.863 100.066L261.33 95.5327C259.863 92.9993 251.463 80.466 242.663 67.5327C233.863 54.7327 226.13 43.266 225.33 42.066C224.663 40.866 221.063 35.5327 217.463 30.466C213.863 25.266 207.73 16.466 203.997 10.866L197.063 0.732672L193.063 7.53267ZM202.53 46.066C204.397 48.866 205.997 51.3993 205.997 51.666C205.997 51.9327 210.397 58.466 215.73 66.066C220.93 73.666 225.997 80.7327 226.663 81.9327C227.463 83.1327 230.397 87.3993 233.197 91.666L238.397 99.266L234.797 106.066C232.93 109.933 229.863 115.399 227.997 118.333C226.263 121.266 223.997 125.133 222.93 126.999C221.863 128.866 217.33 136.466 212.93 144.066C208.397 151.666 204.663 158.333 204.663 158.999C204.663 162.866 201.463 160.333 195.33 151.266C191.463 145.666 184.13 134.999 179.063 127.666C174.13 120.333 168.13 111.666 165.863 108.466L161.73 102.599L164.797 97.1327C166.397 94.066 168.397 90.866 169.197 89.7993C169.997 88.866 172.53 84.866 174.663 80.9993C185.33 62.066 198.397 40.3327 198.797 40.5993C198.93 40.866 200.663 43.266 202.53 46.066Z" fill="white"/>
<path d="M341.331 109.132C312.797 109.932 286.931 110.732 283.864 110.866C278.664 110.999 278.264 111.266 275.731 117.266C272.397 124.732 261.597 150.466 254.664 167.666C251.864 174.199 248.931 181.399 247.997 183.666C247.064 185.799 243.197 195.132 239.464 204.199L232.664 220.732L263.064 219.799C279.731 219.399 306.131 218.599 321.731 218.066L349.997 217.266L352.531 211.799C353.997 208.732 357.331 200.866 359.997 194.332C364.531 183.399 368.131 174.999 371.331 167.666C372.264 165.532 378.531 150.732 385.864 132.999C386.531 131.532 389.064 125.532 391.464 119.666C393.997 113.799 395.864 108.732 395.731 108.332C395.331 107.399 395.731 107.399 341.331 109.132ZM363.331 130.466C363.331 131.132 359.997 139.532 356.531 147.666C350.931 161.132 342.797 180.599 341.197 184.332C336.131 196.466 337.864 195.532 318.664 196.466C292.264 197.799 265.997 197.799 265.997 196.466C265.997 195.932 267.731 191.266 269.864 186.199C278.131 166.599 284.531 151.266 288.664 141.399L292.931 130.999L317.731 130.599C331.464 130.466 347.331 130.199 353.064 129.932C358.664 129.799 363.331 130.066 363.331 130.466Z" fill="white"/>
<path d="M56.6625 119C28.3959 120.333 5.32918 121.4 5.19585 121.533C5.06251 121.667 29.8625 171.4 36.5292 184.333C37.1958 185.4 42.2625 195.533 47.8625 206.6L58.2625 227H65.0625C68.9292 227 94.2625 226.067 121.329 225C148.529 223.933 171.863 223 173.463 223C175.863 223 172.796 216.2 149.596 169.667L123.063 116.333L115.463 116.467C111.329 116.6 84.9292 117.8 56.6625 119ZM125.996 169.933C136.263 190.6 141.463 202.467 140.396 202.6C139.463 202.733 123.729 203.533 105.329 204.333C74.9292 205.533 71.9959 205.4 70.6625 203.4C66.1292 195.933 39.4625 142.467 40.1292 141.8C40.5292 141.4 55.3292 140.333 73.0625 139.533C90.7959 138.733 106.396 137.933 107.596 137.8C109.329 137.667 113.863 145.667 125.996 169.933Z" fill="white"/>
<path d="M504.665 226.332C204.665 236.599 28.532 243.266 24.7987 244.199C13.4653 247.132 3.73199 257.132 0.531987 268.866C-0.53468 272.599 0.398654 311.399 3.99865 414.199C6.66532 491.265 9.19865 555.799 9.59865 557.665C12.7987 570.999 25.0653 582.065 38.2653 583.799C48.2653 584.999 1012.8 551.265 1018.4 549.399C1029.07 546.065 1039.6 533.532 1041.33 522.065C1042.27 516.332 1033.07 243.266 1031.87 236.999C1029.87 227.399 1022.27 217.799 1012.67 212.866C1009.07 210.999 1004.53 210.332 993.332 210.199C985.332 209.932 765.332 217.266 504.665 226.332ZM1007.33 228.732C1016.93 235.132 1016 224.999 1021.33 378.999C1024 455.665 1025.73 519.799 1025.33 521.665C1024.27 525.799 1018.4 532.199 1014 533.932C1011.6 534.865 70.132 568.199 41.8653 568.332C37.332 568.332 30.132 563.399 27.0653 558.332C25.0653 554.732 24.2653 540.065 19.9987 414.999C17.332 338.332 15.5987 274.199 15.9987 272.332C17.332 267.266 24.532 260.466 29.732 259.532C33.732 258.732 961.999 226.199 991.465 225.799C1001.33 225.666 1003.6 226.066 1007.33 228.732Z" fill="white"/>
<path d="M510.665 248.466C255.465 257.266 43.4649 264.733 39.5983 265.133C34.7983 265.666 31.3316 266.866 28.5316 269.399C19.8649 276.599 20.1316 269.133 24.6649 406.733C26.9316 475.533 29.0649 534.733 29.4649 538.599C30.3983 547.133 34.3983 553.533 40.9316 556.733C45.7316 559.133 57.8649 558.733 517.598 543.133C777.065 534.333 993.732 526.866 999.065 526.466C1007.06 525.933 1009.73 525.266 1013.6 522.199C1022.8 515.133 1022.66 523.933 1017.6 378.466C1013.46 255.799 1013.06 247.133 1010.53 242.999C1005.73 234.733 1002 232.999 987.598 232.733C980.532 232.599 765.865 239.666 510.665 248.466ZM1002.66 242.066C1005.86 245.266 1007.33 248.066 1007.86 252.466C1008.26 255.666 1010.4 314.866 1012.66 384.066C1016.53 501.799 1016.66 509.933 1014.53 513.399C1011.2 519.133 1007.6 520.733 996.665 521.266C986.398 521.799 52.1316 553.666 47.3316 553.666C45.8649 553.666 42.3983 551.666 39.7316 549.133L34.7983 544.733L30.3983 413.666C26.9316 312.866 26.2649 281.666 27.4649 278.866C30.1316 272.066 34.5316 270.466 50.6649 269.933C58.7983 269.666 269.865 262.333 519.998 253.666C770.132 244.999 979.998 237.933 986.532 237.799C998.132 237.666 998.265 237.666 1002.66 242.066Z" fill="white"/>
<path d="M968.399 254.599C966.799 254.999 965.465 259.666 962.665 274.466L958.932 293.933L954.665 286.066C952.265 281.799 947.599 273.133 944.132 266.733L937.999 255.133L925.599 255.933C918.932 256.333 913.199 256.733 913.065 256.866C912.932 256.866 911.199 266.333 909.065 277.666L905.332 298.333L904.532 290.333C903.465 279.799 901.865 276.199 895.332 269.133C887.065 260.199 878.665 256.999 863.332 256.999C846.799 257.133 837.199 261.133 827.065 272.199L820.265 279.666L821.199 274.333C821.599 271.399 822.399 266.466 822.799 263.533L823.599 257.933L811.865 258.599C805.332 258.999 799.865 259.399 799.732 259.533C799.732 259.533 796.532 276.466 792.799 296.999C789.065 317.533 785.599 335.666 785.332 337.266C784.665 340.066 785.065 340.333 790.932 340.199C794.532 340.199 799.999 339.666 803.332 339.266L809.332 338.333L811.999 322.999L814.799 307.666L816.532 314.066C818.932 322.599 827.865 332.333 836.932 336.466C842.799 338.999 846.265 339.533 856.665 339.533C867.465 339.533 870.399 338.999 876.932 336.066C886.665 331.533 895.732 323.133 899.999 314.599C901.865 310.866 903.332 308.199 903.332 308.599C903.332 309.533 899.465 330.599 898.532 334.866L897.865 338.066L909.599 337.133C915.999 336.733 921.599 335.799 922.132 335.266C922.665 334.733 924.399 326.466 925.999 316.999C927.732 307.399 929.465 298.599 929.865 297.399C930.399 295.933 933.999 301.399 941.199 315.133L951.865 334.999H963.465C973.465 334.999 975.199 334.599 975.865 332.599C976.799 329.399 989.999 257.399 989.999 255.266C989.999 254.199 987.199 253.666 980.399 253.799C975.065 253.933 969.732 254.199 968.399 254.599ZM869.199 279.533C871.599 280.466 874.932 282.999 876.532 285.133C879.199 288.466 879.465 290.199 879.065 297.133C878.399 307.399 874.132 313.666 865.465 316.999C849.599 323.133 836.399 310.599 841.332 294.199C845.199 280.999 857.332 274.599 869.199 279.533Z" fill="white"/>
<path d="M772.401 261.266C770.801 261.666 769.467 266.332 766.667 281.132L762.934 300.599L758.667 292.732C756.267 288.466 751.601 279.799 748.134 273.399L742.001 261.799L729.601 262.599C722.934 262.999 717.201 263.399 717.067 263.532C717.067 263.532 713.867 280.466 710.134 300.999C706.401 321.532 702.934 339.799 702.534 341.532L701.867 344.732L713.601 343.799C720.001 343.399 725.601 342.466 726.134 341.932C726.667 341.399 728.401 333.132 730.001 323.666C731.734 314.066 733.467 305.266 733.867 304.066C734.401 302.599 738.001 308.066 745.201 321.799L755.867 341.666H767.467C777.467 341.666 779.201 341.266 779.867 339.266C780.801 336.066 794.001 264.066 794.001 261.932C794.001 260.866 791.201 260.332 784.401 260.466C779.067 260.599 773.734 260.866 772.401 261.266Z" fill="white"/>
<path d="M687.866 264.065C687.066 264.599 684.399 275.799 681.999 288.999C676.399 319.665 674.399 323.799 663.732 325.265C657.332 326.065 652.132 324.065 649.199 319.665C646.932 316.199 647.066 315.132 651.332 291.932C653.732 278.599 655.999 266.999 656.266 266.065C656.799 264.865 653.732 264.732 644.399 265.265C637.599 265.665 631.866 266.065 631.732 266.199C631.732 266.199 629.466 278.065 626.799 292.332C620.799 324.332 621.466 329.532 631.866 338.599C638.666 344.599 644.932 346.332 659.999 346.332C671.999 346.332 674.132 345.932 681.066 342.465C689.066 338.599 695.066 332.065 698.932 323.132C700.266 319.932 711.066 267.799 711.332 263.265C711.332 262.465 689.199 263.132 687.866 264.065Z" fill="white"/>
<path d="M571.6 267.132C562.667 268.866 555.067 273.666 550.4 280.732L546.133 287.132L544.133 283.266C543.067 281.132 540.267 277.799 538.133 275.932C530.933 269.932 526.133 269.266 502.133 270.199C490 270.732 480 271.266 479.733 271.399C479.6 271.532 478.133 279.399 476.533 288.732L473.467 305.799L471.733 298.866C468.933 287.932 462 279.932 450.667 274.732C445.2 272.199 441.733 271.666 431.333 271.666C420.267 271.666 417.6 272.199 410.667 275.399C406.267 277.532 400.667 280.999 398.267 283.399L393.867 287.666L394.8 280.066L395.733 272.466L385.867 273.132C380.4 273.399 365.333 274.066 352.4 274.466L328.8 275.266L327.333 282.866C326.533 286.999 325.6 291.799 325.2 293.532C324.533 296.599 324.533 296.599 335.333 296.199C341.2 295.799 346 296.199 346 296.732C346 298.466 336.667 349.932 335.867 352.732C335.2 354.866 336.133 355.132 347.467 354.732L359.867 354.332L365.2 324.866L370.4 295.399L379.2 294.466C383.867 294.066 388 293.932 388.4 294.199C388.667 294.466 387.867 296.732 386.533 299.266C383.467 305.132 382.533 321.266 384.667 328.999C386.933 337.266 396 347.132 404.933 351.132C410.8 353.666 414.267 354.199 424.667 354.199C435.467 354.199 438.4 353.666 444.667 350.866C453.333 346.732 459.6 341.666 464.8 334.466C469.467 328.066 469.6 328.866 465.2 349.266C464.667 352.066 465.067 352.332 470.933 352.199C474.533 352.199 480 351.666 483.333 351.266L489.333 350.332L490.933 340.999C493.867 324.732 493.467 325.399 498.933 325.932L503.867 326.332L506.8 338.066C508.4 344.599 510 350.066 510.267 350.466C511.6 351.666 536.8 349.132 536.267 347.799C536 346.999 534 340.999 531.867 334.466C528.8 324.866 528.4 322.466 529.867 321.932C533.6 320.599 541.6 312.199 544 306.999L546.4 301.666L548.8 305.666C552.133 310.999 557.6 314.199 572.4 319.132C585.2 323.399 587.6 325.932 581.333 328.332C575.067 330.732 560 326.332 553.2 320.199C550.4 317.666 550.4 317.666 543.467 326.599L536.533 335.666L540.933 339.399C548.933 346.066 558.4 348.866 574 348.866C586.533 348.999 588.8 348.599 594.667 345.666C599.2 343.266 602.8 340.066 605.733 335.799C609.467 330.199 610 328.199 610 320.999C610 307.666 605.067 303.266 582.267 295.666C573.733 292.866 571.333 291.532 571.6 289.799C572.4 286.066 585.467 286.999 593.867 291.399C597.733 293.399 601.067 294.999 601.2 294.999C601.467 294.999 604.4 291.399 607.867 286.999C613.2 280.199 614 278.599 612.533 276.866C609.733 273.399 599.067 268.599 590.667 267.132C581.867 265.532 579.733 265.532 571.6 267.132ZM519.867 293.132C525.733 298.999 519.2 304.332 506 304.332H497.733L498.667 298.599C499.2 295.532 499.867 292.599 500.267 291.932C501.467 289.932 517.733 290.866 519.867 293.132ZM437.2 294.199C439.6 295.132 442.933 297.666 444.533 299.799C447.2 303.132 447.467 304.866 447.067 311.799C446.4 322.066 442.133 328.332 433.467 331.666C417.6 337.799 404.4 325.266 409.333 308.866C413.2 295.666 425.333 289.266 437.2 294.199Z" fill="white"/>
<path d="M267.331 308.999C251.864 337.799 247.197 345.799 249.331 339.932C249.864 338.732 245.864 338.465 231.464 338.732L212.931 339.265L213.864 334.732L214.797 330.332L232.664 329.665L250.531 328.999L252.264 320.999C255.064 307.265 256.397 308.332 236.531 308.332H219.197L219.597 304.599L219.997 300.999L237.731 300.199C247.464 299.799 255.731 298.999 256.131 298.599C256.931 297.799 260.531 282.465 260.664 279.532C260.664 278.065 259.197 278.065 219.197 279.799L199.597 280.599L197.331 293.399C193.464 315.665 193.064 316.732 193.064 307.665C193.064 299.132 190.931 293.532 185.731 288.732C178.264 281.799 170.397 280.732 140.264 282.465L126.131 283.399L124.531 293.132L123.064 302.732L115.464 294.999C109.597 288.999 106.264 286.732 100.664 285.132C75.5973 277.665 48.1306 290.732 39.9973 313.799C37.7306 320.199 37.3306 334.732 39.3306 341.799C41.3306 348.865 50.2639 358.199 59.0639 362.599C65.5973 365.799 68.2639 366.332 77.9973 366.332C91.0639 366.332 98.9306 363.799 107.997 356.865C111.197 354.465 113.597 353.132 113.331 354.065C113.064 354.999 112.531 357.665 112.131 359.932L111.464 364.332L117.731 364.199C121.197 364.199 126.664 363.665 129.997 363.265L135.997 362.332L137.597 352.999C140.531 336.732 140.131 337.399 145.597 337.932L150.531 338.332L153.464 350.065C155.064 356.599 156.664 362.065 156.931 362.465C158.264 363.665 183.464 361.132 182.931 359.799C182.664 358.999 180.664 352.999 178.531 346.465C175.464 337.132 175.064 334.465 176.397 333.932C179.864 332.865 187.464 325.265 189.997 320.465C191.464 317.799 192.531 316.332 192.664 316.999C192.664 317.799 190.931 327.932 188.797 339.665C186.664 351.399 185.064 361.132 185.197 361.265C185.731 361.799 257.064 358.999 263.731 358.199C268.931 357.532 270.131 356.865 270.797 354.199C271.197 352.465 272.264 350.599 273.064 349.799C273.997 349.132 280.931 348.332 288.664 348.065L302.664 347.665L303.064 351.932L303.464 356.332H316.797H330.264L329.464 352.599C329.064 350.599 325.997 333.665 322.664 314.999C319.197 296.332 316.264 279.932 315.864 278.599C315.197 276.599 313.331 276.332 299.997 276.332H284.931L267.331 308.999ZM298.664 315.932L299.731 326.999H291.997C287.864 326.999 284.664 326.465 284.931 325.932C289.731 313.799 295.997 301.932 296.797 303.265C297.331 304.199 298.131 309.932 298.664 315.932ZM166.531 305.132C172.397 310.999 165.864 316.332 152.664 316.332H144.397L145.331 310.599C145.864 307.532 146.531 304.599 146.931 303.932C148.131 301.932 164.397 302.865 166.531 305.132ZM91.9973 306.199C95.5973 307.799 98.6639 310.865 101.331 315.932C101.464 316.199 105.997 314.865 111.331 312.999C116.664 311.132 121.197 309.799 121.331 310.065C121.464 310.199 119.997 318.332 118.131 328.065L114.664 345.665L106.931 340.999C102.664 338.465 98.7973 336.332 98.1306 336.332C97.5973 336.332 95.7306 337.799 93.9973 339.665C87.4639 346.599 76.2639 347.132 68.7973 340.865C60.2639 333.799 60.9306 320.065 70.1306 310.865C76.6639 304.332 83.7306 302.865 91.9973 306.199Z" fill="white"/>
<path d="M797.997 358.6C703.731 361.933 626.531 364.733 626.264 365C625.331 365.8 620.664 407.4 621.331 408.067C622.131 408.867 977.731 397 978.531 396.2C978.931 395.933 980.264 385.933 981.597 373.933L984.131 352.333L976.797 352.467C972.664 352.6 892.264 355.4 797.997 358.6Z" fill="white"/>
<path d="M580.395 365.265C576.395 365.932 576.662 365.265 572.662 386.999C571.195 395.399 569.595 403.665 569.328 405.265C568.662 408.199 569.062 408.332 575.328 408.332C580.262 408.332 581.995 407.799 581.995 406.332C581.995 405.399 582.662 401.399 583.462 397.665L584.928 390.999H592.128C600.128 390.999 600.528 391.665 598.128 401.932L596.928 406.999H603.328H609.862L611.195 399.932C611.995 396.199 613.595 387.532 614.662 380.999C615.862 374.332 617.195 367.932 617.462 366.599C618.128 364.599 617.195 364.332 611.462 364.332H604.795L603.862 370.999C602.795 378.732 600.928 380.332 592.795 380.332C586.795 380.332 586.662 380.065 588.528 369.932C589.728 363.799 589.728 363.799 580.395 365.265Z" fill="white"/>
<path d="M544.533 366.599C540.266 367.133 539.466 367.666 538.799 371.266C537.599 377.533 537.599 377.666 543.333 377.666C546.666 377.666 548.666 378.333 548.666 379.266C548.666 380.199 547.466 387.266 545.999 394.866C544.533 402.466 543.466 408.999 543.733 409.133C543.999 409.399 546.933 409.266 550.266 408.866L556.266 408.066L558.533 395.133C562.266 374.733 561.466 376.333 568.132 376.333C572.799 376.333 573.999 375.799 573.999 373.933C573.999 372.733 574.399 370.333 574.799 368.599C575.599 365.666 575.466 365.666 562.532 365.933C555.199 366.066 547.199 366.333 544.533 366.599Z" fill="white"/>
<path d="M511.331 367.933C510.131 368.2 507.331 373.533 504.665 380.733L500.131 393L499.065 387.666C498.531 384.733 498.131 379.133 498.131 375.266L497.998 368.333H492.931H487.865L482.265 381.266L476.798 394.333L476.665 387.533C476.665 383.8 476.265 378.066 475.865 374.733L475.065 368.733L468.798 369.4C465.465 369.666 462.531 370.2 462.265 370.333C461.731 370.733 465.998 411.4 466.531 412.066C466.798 412.333 469.998 412.066 473.598 411.666L480.131 410.733L484.665 399.266L489.331 387.666L489.598 393.666C489.865 397 490.265 402.2 490.798 405.266L491.465 411H497.865H504.265L514.131 389.666C519.465 377.933 523.998 368.6 524.265 368.733C524.398 369 523.198 376.866 521.331 386.466C519.598 395.933 517.731 405.266 517.465 407.266C516.798 410.866 516.931 411 523.198 411H529.598L531.731 398.6C532.931 391.933 534.798 382.066 535.731 377L537.598 367.533H525.465C518.798 367.4 512.398 367.666 511.331 367.933Z" fill="white"/>
<path d="M236.795 376.466C134.528 380.066 50.5285 383.266 50.1285 383.666C49.3285 384.599 43.4618 426.066 43.9952 426.732C45.0618 427.932 446.662 413.399 447.462 412.199C447.862 411.532 449.195 402.599 450.528 392.599C451.728 382.599 453.195 373.266 453.462 371.932C454.128 369.799 452.795 369.666 438.395 369.799C429.728 369.932 339.062 372.866 236.795 376.466Z" fill="white"/>
<path d="M921.061 413.532C909.195 413.932 899.195 414.732 898.795 415.132C897.995 415.932 863.328 511.799 863.328 513.132C863.328 513.532 869.995 513.532 878.261 513.399L893.195 512.999L899.728 494.865L906.128 476.732L917.061 475.799C923.061 475.399 932.928 474.999 939.061 474.999C945.061 474.999 949.995 474.865 949.995 474.599C949.995 474.465 952.128 468.465 954.661 461.132L959.461 447.932L937.995 448.599L916.528 449.265L917.328 445.799C917.861 443.932 918.528 441.932 919.061 441.399C919.595 440.999 929.861 440.065 941.861 439.399L963.728 438.332L968.128 426.332C970.661 419.665 972.661 413.932 972.661 413.265C972.661 412.332 956.128 412.332 921.061 413.532Z" fill="white"/>
<path d="M841.061 416.2C829.195 416.6 819.195 417.4 818.795 417.8C817.995 418.6 783.328 514.467 783.328 515.8C783.328 516.2 789.995 516.2 798.261 516.067L813.195 515.667L819.728 497.533L826.128 479.4L837.061 478.467C843.061 478.067 852.928 477.667 859.061 477.667C865.061 477.667 869.995 477.533 869.995 477.267C869.995 477.133 872.128 471.133 874.661 463.8L879.461 450.6L857.995 451.267L836.528 451.933L837.328 448.467C837.861 446.6 838.528 444.6 839.061 444.067C839.595 443.667 849.861 442.733 861.861 442.067L883.728 441L888.128 429C890.661 422.333 892.661 416.6 892.661 415.933C892.661 415 876.128 415 841.061 416.2Z" fill="white"/>
<path d="M759.733 418.865C747.866 419.265 737.866 420.065 737.466 420.465C736 421.799 701.866 517.932 702.533 518.599C703.466 519.665 774.933 517.132 776 516.065C776.666 515.399 785.866 491.532 786 490.199C786 490.065 776.133 490.332 764 490.732C751.866 491.132 742 491.132 742 490.732C742 490.332 742.666 488.199 743.333 486.065C744.8 482.199 745.066 482.065 755.733 481.265C761.733 480.732 771.6 480.332 777.733 480.332C783.733 480.332 788.666 480.199 788.666 479.932C788.666 479.799 790.8 473.799 793.333 466.465L798.133 453.265L776.666 453.932L755.2 454.599L756 451.132C756.533 449.265 757.2 447.265 757.733 446.732C758.266 446.332 768.533 445.399 780.533 444.732L802.4 443.665L806.8 431.665C809.333 424.999 811.333 419.265 811.333 418.599C811.333 417.665 794.8 417.665 759.733 418.865Z" fill="white"/>
<path d="M706.131 421.532L697.731 422.332L685.731 455.665C677.865 477.665 672.665 490.199 670.531 492.332C666.265 496.599 657.065 496.999 652.665 492.999L649.731 490.332L645.731 494.999C636.131 506.465 631.198 513.665 631.998 514.999C632.398 515.799 635.331 517.665 638.398 519.265C643.065 521.799 646.265 522.199 657.331 522.332C668.931 522.332 671.598 521.932 677.998 518.865C687.465 514.332 693.998 507.665 699.731 496.599C703.998 488.199 727.331 425.265 727.331 421.799C727.331 420.199 721.465 420.199 706.131 421.532Z" fill="white"/>
<path d="M648.528 422.599L635.595 423.132L621.195 439.666C613.328 448.866 606.661 456.332 606.528 456.332C606.395 456.332 604.928 449.132 603.328 440.332L600.261 424.199L578.128 424.999C565.995 425.532 542.261 426.332 525.595 426.866C508.928 427.532 494.928 428.199 494.661 428.599C494.395 428.866 491.995 434.999 489.328 442.066L484.661 455.132L502.395 454.199L519.995 453.399L514.661 458.599C511.728 461.532 499.861 472.732 488.395 483.532L467.461 503.266L463.461 514.466C461.195 520.732 459.328 526.199 459.328 526.599C459.328 527.666 531.595 525.532 534.795 524.332C536.795 523.532 538.795 519.799 541.728 511.399C544.128 504.866 545.995 499.132 545.995 498.732C545.995 498.199 538.261 498.066 528.661 498.599C519.195 498.999 511.328 499.132 511.328 498.732C511.328 498.332 523.061 486.999 537.328 473.666C562.795 449.666 563.328 449.132 566.128 440.466C567.728 435.666 569.328 432.332 569.595 433.266C569.861 434.066 573.061 445.932 576.528 459.532L583.061 484.199L576.528 502.332C572.928 512.332 569.995 521.266 569.995 522.066C569.995 523.266 573.728 523.532 584.395 523.266C592.261 522.999 598.795 522.599 599.061 522.332C599.328 522.199 602.528 513.266 606.395 502.732L613.328 483.399L641.328 453.799C656.795 437.532 669.595 423.666 669.728 422.999C669.995 422.199 668.261 421.799 665.728 421.932C663.328 422.066 655.595 422.466 648.528 422.599Z" fill="white"/>
<path d="M437.062 429.667C424.396 430.067 413.862 430.733 413.462 431.133C413.062 431.533 410.662 437.667 407.996 444.733L403.329 457.8L421.062 456.867L438.662 456.067L433.329 461.267C430.396 464.2 418.662 475.4 407.196 486.067C389.596 502.733 385.862 506.867 383.596 512.733L380.796 519.667V475.8L380.662 431.933L361.729 433C351.196 433.533 342.262 434.333 341.862 434.733C339.462 437.4 271.196 533.933 271.596 534.067C271.729 534.2 279.729 534.2 289.062 533.933L306.129 533.533L310.262 527.8L314.262 522.067L326.262 521.133C332.929 520.733 340.662 520.333 343.596 520.333H348.662V526.2V532.2L355.729 531.533C368.262 530.467 423.062 528.333 436.529 528.333C455.196 528.333 455.462 528.2 460.396 514.067C462.796 507.533 464.662 501.8 464.662 501.4C464.662 500.867 456.929 500.733 447.329 501.267C437.862 501.667 429.996 501.8 429.996 501.4C429.996 501 441.729 489.667 455.996 476.333L481.862 452.067L485.329 441.8C487.329 436.2 489.196 430.867 489.596 429.933C490.262 428.2 479.329 428.067 437.062 429.667ZM350.662 486.6L349.862 493.4L341.196 493.933C336.529 494.2 332.796 493.933 332.929 493.533C333.196 493 337.196 486.6 341.996 479.133L350.662 465.533L351.062 472.6C351.329 476.467 351.196 482.733 350.662 486.6Z" fill="white"/>
<path d="M290.131 434.866L281.731 435.666L269.731 468.999C261.865 490.999 256.665 503.533 254.531 505.666C250.265 509.933 241.065 510.333 236.665 506.333L233.731 503.666L229.731 508.333C220.131 519.799 215.198 526.999 215.998 528.333C216.398 529.133 219.331 530.999 222.398 532.599C227.065 535.133 230.265 535.533 241.331 535.666C252.931 535.666 255.598 535.266 261.998 532.199C271.465 527.666 277.998 520.999 283.731 509.933C287.998 501.533 311.331 438.599 311.331 435.133C311.331 433.533 305.465 433.533 290.131 434.866Z" fill="white"/>
<path d="M216.796 437.532L208.396 438.332L196.396 471.665C188.529 493.665 183.329 506.199 181.196 508.332C176.929 512.599 167.729 512.999 163.329 508.999L160.396 506.332L156.396 510.999C146.796 522.465 141.862 529.665 142.662 530.999C143.062 531.799 145.996 533.665 149.062 535.265C153.729 537.799 156.929 538.199 167.996 538.332C179.596 538.332 182.262 537.932 188.662 534.865C198.129 530.332 204.662 523.665 210.396 512.599C214.662 504.199 237.996 441.265 237.996 437.799C237.996 436.199 232.129 436.199 216.796 437.532Z" fill="white"/>
<path d="M105.061 441.666C93.1948 442.066 83.1948 442.733 82.7948 443.133C81.8615 443.933 47.3281 539.8 47.3281 541.266C47.3281 542.733 98.6615 540.2 108.661 538.2C137.195 532.333 158.528 511.666 163.595 484.733C166.528 468.6 160.395 453.8 147.728 446.733C138.795 441.666 131.595 440.866 105.061 441.666ZM125.861 470.2C132.928 473.933 134.528 483.4 129.861 493.666C123.995 506.733 114.795 512.466 98.3948 513.4C92.2615 513.666 87.3281 513.666 87.3281 513.266C87.3281 512.866 93.5948 495.266 102.661 469.933C103.461 467.666 121.061 467.8 125.861 470.2Z" fill="white"/>
<path d="M875.333 578.332C874.266 578.599 868.8 579.399 863.333 580.332C851.6 582.199 832.666 587.532 825.733 591.132C819.066 594.466 816.4 598.466 818.4 601.799C820.133 604.466 823.333 605.266 823.333 602.866C823.333 602.199 826.533 600.199 830.4 598.466C839.466 594.466 844.666 593.266 844.666 594.999C844.666 595.799 841.2 604.732 836.8 614.732C823.466 645.932 820.8 657.666 826 662.332C827.466 663.666 828.933 664.466 829.066 664.199C829.333 663.932 830.666 659.132 832 653.666C834.266 644.066 837.866 634.199 850.4 604.466C856.666 589.399 856.266 589.799 868.666 587.799L874.666 586.866L870.4 589.532C864.8 592.999 863.066 596.332 865.333 599.399C867.466 602.466 868.533 602.332 871.466 598.466C872.8 596.732 875.733 594.599 878 593.666C882.266 591.932 883.066 589.932 880.4 587.266C879.2 586.066 879.6 585.666 882.533 585.666C884.533 585.666 887.333 586.332 888.8 586.999C891.066 588.199 891.333 587.932 891.333 584.466C891.333 581.266 890.533 580.332 887.2 579.132C883.066 577.666 879.733 577.532 875.333 578.332Z" fill="white"/>
<path d="M773.867 588.865C771.2 589.799 767.067 591.932 764.667 593.665C761.2 596.199 758.8 596.732 753.2 596.465C745.733 596.065 724.533 599.532 720.4 601.799C718.133 602.999 717.6 608.332 719.467 610.332C719.867 610.599 725.6 609.799 732.133 608.332C738.667 606.865 744.667 605.665 745.333 605.665C746.133 605.665 741.333 608.599 734.667 612.065C717.6 621.132 711.333 625.532 711.333 628.599C711.333 633.132 714.667 633.132 732.667 628.732C734.533 628.332 729.467 631.932 721.333 636.865C713.333 641.799 706.267 646.199 705.6 646.865C704.133 648.332 706.8 653.665 709.067 653.665C710 653.799 718.267 652.065 727.6 650.065C740.8 647.132 744.667 645.799 745.2 643.932C746.4 638.999 739.867 637.932 726.133 640.865C717.867 642.599 717.733 642.599 720.8 640.199C722.533 638.865 730.4 634.465 738.133 630.332C751.2 623.665 755.6 619.665 752.933 617.132C751.467 615.665 741.6 616.332 734.4 618.465C730.4 619.665 726.933 620.332 726.533 620.065C725.733 619.265 750.4 605.665 752.533 605.665C753.467 605.665 753.733 606.199 753.333 606.999C751.333 610.199 754.4 610.465 757.733 607.399C761.867 603.532 773.6 597.265 775.467 597.932C776.267 598.199 770.667 610.465 763.067 625.399C748.667 653.799 748 656.332 755.2 657.399C762.4 658.465 794.133 631.799 800.8 618.999C804.533 611.665 804.8 599.532 801.333 594.199C797.067 587.532 784.267 585.132 773.867 588.865ZM795.6 597.265C801.733 602.732 794.8 617.265 779.2 631.399C769.467 640.332 762.667 645.399 763.467 643.399C763.733 642.599 768.4 633.265 773.867 622.599C782.533 605.399 783.6 602.732 782.267 599.799C781.467 598.065 781.2 596.199 781.6 595.799C783.333 594.065 793.2 595.132 795.6 597.265ZM749.067 601.265C748.133 601.532 746.267 601.532 745.067 601.265C743.733 600.865 744.533 600.599 746.667 600.599C748.933 600.599 749.867 600.865 749.067 601.265ZM740.267 602.465C739.867 602.865 738.667 602.999 737.733 602.599C736.667 602.199 737.067 601.799 738.533 601.799C740 601.665 740.8 602.065 740.267 602.465ZM733.6 603.799C733.2 604.199 732 604.332 731.067 603.932C730 603.532 730.4 603.132 731.867 603.132C733.333 602.999 734.133 603.399 733.6 603.799ZM728.267 605.132C727.867 605.532 726.667 605.665 725.733 605.265C724.667 604.865 725.067 604.465 726.533 604.465C728 604.332 728.8 604.732 728.267 605.132ZM745.6 621.132C745.2 621.532 744 621.665 743.067 621.265C742 620.865 742.4 620.465 743.867 620.465C745.333 620.332 746.133 620.732 745.6 621.132ZM740.267 622.465C739.867 622.865 738.667 622.999 737.733 622.599C736.667 622.199 737.067 621.799 738.533 621.799C740 621.665 740.8 622.065 740.267 622.465ZM734.933 623.799C734.533 624.199 733.333 624.332 732.4 623.932C731.333 623.532 731.733 623.132 733.2 623.132C734.667 622.999 735.467 623.399 734.933 623.799ZM725.6 626.465C725.2 626.865 724 626.999 723.067 626.599C722 626.199 722.4 625.799 723.867 625.799C725.333 625.665 726.133 626.065 725.6 626.465ZM737.6 643.799C737.2 644.199 736 644.332 735.067 643.932C734 643.532 734.4 643.132 735.867 643.132C737.333 642.999 738.133 643.399 737.6 643.799ZM730.933 645.132C730.533 645.532 729.333 645.665 728.4 645.265C727.333 644.865 727.733 644.465 729.2 644.465C730.667 644.332 731.467 644.732 730.933 645.132ZM725.6 646.465C725.2 646.865 724 646.999 723.067 646.599C722 646.199 722.4 645.799 723.867 645.799C725.333 645.665 726.133 646.065 725.6 646.465ZM720.267 647.799C719.867 648.199 718.667 648.332 717.733 647.932C716.667 647.532 717.067 647.132 718.533 647.132C720 646.999 720.8 647.399 720.267 647.799ZM764.667 648.865C764.667 649.132 763.6 650.199 762.4 651.132C760.267 652.865 760.133 652.732 761.867 650.599C763.6 648.465 764.667 647.799 764.667 648.865Z" fill="white"/>
<path d="M947.864 605.799L941.331 623.399L940.397 612.866C939.064 598.999 938.264 596.333 936.131 596.333C935.064 596.333 933.197 595.399 931.997 594.199C930.531 592.599 929.464 592.333 928.397 593.399C926.664 595.133 908.664 642.866 908.664 645.933C908.664 647.133 909.864 648.866 911.331 649.666C914.797 651.533 915.864 649.533 924.131 627.666L930.664 610.333L931.597 627.266C933.197 655.399 936.531 656.733 946.264 632.999C958.397 603.533 962.264 592.199 960.531 590.199C956.664 585.533 954.531 588.066 947.864 605.799Z" fill="white"/>
<path d="M893.334 593.266C881.067 599.799 871.334 611.266 871.334 618.866C871.334 621.666 872 624.466 872.8 625.266C874 626.466 873.334 628.466 870.267 633.266C864.267 642.599 863.734 646.466 867.467 650.466C873.6 656.999 884.4 652.866 898.534 638.599C910.267 626.866 915.334 617.399 915.334 607.399C915.334 599.666 912.8 593.132 909.334 591.799C905.467 590.332 897.467 590.999 893.334 593.266ZM909.334 600.599C911.334 608.466 901.467 626.599 889.734 636.866C882.134 643.532 874.534 647.932 873.2 646.599C872.667 646.199 873.734 642.866 875.467 639.399C878.4 633.399 879.067 632.999 884.4 632.599C890.934 632.066 891.6 630.599 886 628.866L881.867 627.666L889.334 617.399C893.334 611.799 896.667 606.599 896.667 605.799C896.667 602.066 892.134 605.132 885.067 613.532C880.8 618.599 877.067 622.599 876.8 622.332C875.867 621.266 882 612.866 887.6 607.532C897.734 597.666 907.867 594.599 909.334 600.599ZM887.334 602.066C887.334 602.332 886 603.666 884.4 605.132L881.334 607.666L883.867 604.599C886.267 601.799 887.334 600.999 887.334 602.066ZM899.334 634.066C899.334 634.332 897.734 635.932 895.734 637.799L892 640.999L895.2 637.266C898.267 633.932 899.334 632.999 899.334 634.066Z" fill="white"/>
<path d="M548.402 596.333C547.469 597.799 546.002 598.999 545.202 598.999C542.802 598.999 519.469 622.466 510.535 633.666C506.269 639.133 501.202 646.466 499.335 649.933C496.402 655.666 496.269 656.466 498.002 659.799C501.602 666.333 507.469 666.999 519.735 662.333C521.335 661.666 522.002 662.066 522.002 663.933C522.002 666.733 524.402 669.666 526.669 669.666C527.469 669.666 529.069 666.733 530.269 663.266C531.602 659.799 534.935 653.266 537.735 648.866C542.802 641.133 543.069 639.266 540.002 635.266C539.335 634.599 526.669 638.066 525.335 639.266C524.402 640.066 525.069 641.399 526.935 642.866C530.935 646.199 529.202 648.333 517.602 654.333C508.535 658.999 504.669 660.066 504.669 657.799C504.669 655.266 515.735 640.333 527.202 627.399C540.669 612.199 542.002 611.133 542.002 614.733C542.002 618.066 546.669 622.199 549.335 621.266C550.535 620.733 551.335 618.733 551.335 616.333C551.335 614.066 552.269 610.066 553.335 607.399C555.735 601.666 555.869 597.399 553.735 595.266C551.469 592.999 550.269 593.266 548.402 596.333Z" fill="white"/>
<path d="M640.934 601.399C638.667 604.865 632.534 613.399 627.2 620.332L617.734 632.999L618.667 620.599C619.334 610.599 619.067 607.132 617.334 602.332C614.134 594.065 611.867 595.799 604 612.999C598.934 624.332 597.2 626.865 595.467 626.199C594.267 625.665 590.534 624.999 587.2 624.599L581.067 624.065L580.267 614.599C579.067 601.399 577.2 596.332 573.334 596.332C570.8 596.332 569.334 598.732 562.8 614.732C556.4 630.199 554.267 634.199 549.2 638.999C543.734 644.199 543.2 645.265 544 649.132C544.534 652.065 544 654.999 542.667 657.532C539.2 664.465 540.534 668.332 546.667 668.332C547.6 668.332 551.2 662.599 554.8 655.532C560.134 644.999 562 642.332 565.6 640.865C568 639.799 570.267 638.999 570.667 638.999C571.067 638.999 571.334 642.199 571.334 646.199C571.334 660.465 573.867 665.399 579.467 661.799C580.934 660.999 582 660.865 582 661.665C582 662.332 583.2 663.532 584.667 664.332C587.2 665.665 587.734 664.999 591.334 657.399C593.334 652.732 598.4 642.732 602.534 634.999L609.867 620.999L609.067 632.599L608.267 644.199L612 645.932C615.6 647.532 616 647.265 621.467 641.132C624.667 637.665 627.334 634.999 627.334 635.399C627.334 635.799 624.934 641.132 622 647.265C615.734 659.932 615.467 664.732 620.8 665.399C623.734 665.799 624.534 665.132 625.334 662.065C627.2 654.199 648 612.332 649.6 612.999C650.534 613.265 656.534 612.332 662.934 610.999C669.467 609.532 675.334 608.332 676 608.332C676.8 608.332 672 611.265 665.334 614.732C648.267 623.799 642 628.199 642 631.265C642 635.799 645.334 635.799 663.334 631.399C665.2 630.999 660.134 634.599 652 639.532C644 644.465 636.934 648.865 636.267 649.532C634.8 650.999 637.467 656.332 639.734 656.332C640.667 656.465 648.934 654.732 658.267 652.732C671.467 649.799 675.334 648.465 675.867 646.599C677.067 641.665 670.534 640.599 656.8 643.532C648.534 645.265 648.4 645.265 651.467 642.865C653.2 641.532 661.067 637.132 668.8 632.999C681.867 626.332 686.267 622.332 683.6 619.799C682.134 618.332 672.267 618.999 665.067 621.132C661.067 622.332 657.6 622.999 657.2 622.732C656.4 621.932 680.134 608.999 686.534 606.865C692.134 604.865 694.134 602.065 691.2 600.199C688.134 598.332 675.6 598.865 662.934 601.399C652.534 603.532 651.334 603.665 651.467 601.799C651.867 598.332 649.867 594.999 647.334 594.999C646 594.999 643.2 597.665 640.934 601.399ZM679.734 603.932C678.8 604.199 676.934 604.199 675.734 603.932C674.4 603.532 675.2 603.265 677.334 603.265C679.6 603.265 680.534 603.532 679.734 603.932ZM670.934 605.132C670.534 605.532 669.334 605.665 668.4 605.265C667.334 604.865 667.734 604.465 669.2 604.465C670.667 604.332 671.467 604.732 670.934 605.132ZM664.267 606.465C663.867 606.865 662.667 606.999 661.734 606.599C660.667 606.199 661.067 605.799 662.534 605.799C664 605.665 664.8 606.065 664.267 606.465ZM658.934 607.799C658.534 608.199 657.334 608.332 656.4 607.932C655.334 607.532 655.734 607.132 657.2 607.132C658.667 606.999 659.467 607.399 658.934 607.799ZM635.334 618.199C635.334 618.465 634.267 619.532 633.067 620.465C630.934 622.199 630.8 622.065 632.534 619.932C634.267 617.799 635.334 617.132 635.334 618.199ZM634.134 633.132C631.2 638.999 628.8 643.265 628.667 642.732C628.667 641.265 638.4 621.665 639.067 622.199C639.334 622.465 637.067 627.399 634.134 633.132ZM631.334 623.532C631.334 623.799 630.267 624.865 629.067 625.799C626.934 627.532 626.8 627.399 628.534 625.265C630.267 623.132 631.334 622.465 631.334 623.532ZM676.267 623.799C675.867 624.199 674.667 624.332 673.734 623.932C672.667 623.532 673.067 623.132 674.534 623.132C676 622.999 676.8 623.399 676.267 623.799ZM570.267 627.265C569.334 628.199 568.667 628.332 568.667 627.532C568.667 625.665 570.267 624.065 571.2 624.999C571.467 625.399 571.067 626.465 570.267 627.265ZM670.934 625.132C670.534 625.532 669.334 625.665 668.4 625.265C667.334 624.865 667.734 624.465 669.2 624.465C670.667 624.332 671.467 624.732 670.934 625.132ZM665.6 626.465C665.2 626.865 664 626.999 663.067 626.599C662 626.199 662.4 625.799 663.867 625.799C665.334 625.665 666.134 626.065 665.6 626.465ZM627.334 628.865C627.334 629.132 626.267 630.199 625.067 631.132C622.934 632.865 622.8 632.732 624.534 630.599C626.267 628.465 627.334 627.799 627.334 628.865ZM656.267 629.132C655.867 629.532 654.667 629.665 653.734 629.265C652.667 628.865 653.067 628.465 654.534 628.465C656 628.332 656.8 628.732 656.267 629.132ZM588.534 643.265C585.467 649.399 582.8 654.599 582.4 654.999C582.134 655.265 582 650.865 582.267 644.999C582.667 634.999 582.8 634.332 586 633.532C594.267 631.265 594.4 631.665 588.534 643.265ZM576.267 642.599C575.867 643.932 575.6 643.132 575.6 640.999C575.6 638.732 575.867 637.799 576.267 638.599C576.534 639.532 576.534 641.399 576.267 642.599ZM668.267 646.465C667.867 646.865 666.667 646.999 665.734 646.599C664.667 646.199 665.067 645.799 666.534 645.799C668 645.665 668.8 646.065 668.267 646.465ZM550.4 654.332C548.4 658.332 546.534 661.399 546.267 661.132C545.734 660.465 552.4 646.999 553.334 646.999C553.734 646.999 552.4 650.332 550.4 654.332ZM661.6 647.799C661.2 648.199 660 648.332 659.067 647.932C658 647.532 658.4 647.132 659.867 647.132C661.334 646.999 662.134 647.399 661.6 647.799ZM656.267 649.132C655.867 649.532 654.667 649.665 653.734 649.265C652.667 648.865 653.067 648.465 654.534 648.465C656 648.332 656.8 648.732 656.267 649.132ZM577.6 656.599C577.334 658.332 577.067 657.265 577.067 654.332C576.934 651.399 577.2 650.065 577.6 651.265C577.867 652.599 577.867 654.999 577.6 656.599ZM650.934 650.465C650.534 650.865 649.334 650.999 648.4 650.599C647.334 650.199 647.734 649.799 649.2 649.799C650.667 649.665 651.467 650.065 650.934 650.465ZM623.467 655.932C621.867 658.599 621.6 657.799 622.8 654.332C623.334 653.132 624 652.465 624.267 652.865C624.667 653.132 624.267 654.599 623.467 655.932Z" fill="white"/>
<path d="M409.6 600.865C402.933 603.265 395.866 608.865 391.866 614.999C387.6 621.399 388.8 624.065 393.733 619.399C397.866 615.532 409.6 609.265 411.466 609.932C412.266 610.199 406.666 622.465 399.066 637.399C384.666 665.799 384 668.332 391.2 669.399C398.4 670.465 430.133 643.799 436.8 630.999C440.533 623.665 440.8 611.532 437.333 606.199C432.933 599.532 420.266 597.132 409.6 600.865ZM431.6 609.265C437.733 614.732 430.8 629.265 415.2 643.399C405.466 652.332 398.666 657.399 399.466 655.399C399.733 654.599 404.4 645.265 409.866 634.599C418.533 617.399 419.6 614.732 418.266 611.799C417.466 610.065 417.2 608.199 417.6 607.799C419.333 606.065 429.2 607.132 431.6 609.265ZM400.666 660.865C400.666 661.132 399.6 662.199 398.4 663.132C396.266 664.865 396.133 664.732 397.866 662.599C399.6 660.465 400.666 659.799 400.666 660.865Z" fill="white"/>
<path d="M452.128 618.732C445.728 634.199 443.595 638.199 438.528 642.999C433.062 648.199 432.528 649.265 433.328 653.132C433.862 656.065 433.328 658.999 431.995 661.532C428.528 668.465 429.862 672.332 435.995 672.332C436.928 672.332 440.528 666.599 444.128 659.532C449.462 648.999 451.328 646.332 454.928 644.865C457.328 643.799 459.595 642.999 459.995 642.999C460.395 642.999 460.662 646.732 460.795 651.265C460.928 662.332 462.128 666.199 465.462 666.732C469.995 667.399 471.195 664.199 471.595 650.999L471.995 638.332L478.528 636.999C482.128 636.199 485.462 634.732 485.728 633.665C486.662 630.865 481.995 628.332 475.995 628.332H470.395L469.595 618.599C468.395 605.399 466.528 600.332 462.662 600.332C460.128 600.332 458.662 602.732 452.128 618.732ZM459.595 631.265C458.662 632.199 457.995 632.332 457.995 631.532C457.995 629.665 459.595 628.065 460.528 628.999C460.795 629.399 460.395 630.465 459.595 631.265ZM465.595 646.599C465.195 647.932 464.928 647.132 464.928 644.999C464.928 642.732 465.195 641.799 465.595 642.599C465.862 643.532 465.862 645.399 465.595 646.599ZM439.728 658.332C437.728 662.332 435.862 665.399 435.595 665.132C435.062 664.465 441.728 650.999 442.662 650.999C443.062 650.999 441.728 654.332 439.728 658.332ZM466.928 660.599C466.662 662.332 466.395 661.265 466.395 658.332C466.262 655.399 466.528 654.065 466.928 655.265C467.195 656.599 467.195 658.999 466.928 660.599Z" fill="white"/>
<path d="M351.997 607.133C349.064 607.667 345.064 607.933 343.197 607.533C341.064 607.133 339.064 607.667 338.131 608.867C337.197 609.933 333.464 611.133 329.597 611.667C320.931 612.867 320.397 613.267 321.997 616.467C323.064 618.2 324.797 619 327.997 619C330.531 619 332.664 619.667 332.664 620.333C332.664 624.067 324.664 635.4 320.531 637.4C316.531 639.4 315.997 640.2 316.397 644.2C316.664 647.267 315.731 650.333 313.597 653.533C310.264 658.467 304.664 669 304.664 670.2C304.664 671.133 308.797 675 309.864 675C310.397 675 315.064 668.067 320.131 659.4C330.531 641.8 330.931 641.533 349.464 638.333C355.731 637.267 361.197 636.333 361.464 636.333C361.731 636.333 361.997 635.4 361.997 634.333C361.997 630.733 356.664 629.267 347.064 630.2C342.131 630.6 337.997 630.733 337.997 630.333C337.997 628.733 343.731 618.333 345.064 617.4C347.464 615.933 367.997 613.267 372.397 613.933C375.997 614.467 376.664 614.067 376.664 611.667C376.664 610.2 375.997 608.2 375.064 607.267C373.197 605.4 360.264 605.4 351.997 607.133Z" fill="white"/>
<path d="M862.401 607.266C861.867 608.199 857.867 616.466 853.601 625.666C845.334 643.266 843.334 652.466 847.601 653.399C848.934 653.666 850.134 652.599 850.667 650.732C851.201 648.999 855.467 639.532 860.267 629.666C866.001 617.399 868.534 610.732 868.001 608.732C867.201 605.399 864.134 604.599 862.401 607.266Z" fill="white"/>
<path d="M130.8 611.266C129.6 612.866 128.667 614.733 128.667 615.399C128.667 615.933 124.134 626.599 118.534 639.133C113.067 651.666 108.134 663.933 107.734 666.333C107.2 669.799 105.867 671.666 102.534 673.533C98.9337 675.666 98.0004 677.133 98.0004 680.466C98.0004 685.266 97.7337 685.266 111.334 679.533C118.134 676.733 122.8 675.799 133.067 675.266L146.134 674.599L145.734 671.133C145.2 666.333 139.334 664.866 126.267 666.599C120.667 667.266 116 667.933 115.867 667.799C115.734 667.666 120.134 658.066 125.6 646.333C137.067 621.399 138.8 615.799 136.8 611.399C135.067 607.533 133.334 607.533 130.8 611.266ZM116.8 655.933C115.2 658.599 114.934 657.799 116.134 654.333C116.667 653.133 117.334 652.466 117.6 652.866C118 653.133 117.6 654.599 116.8 655.933Z" fill="white"/>
<path d="M815.729 609.934C815.195 610.867 811.195 619.134 806.929 628.334C798.662 645.934 796.662 655.134 800.929 656.067C802.262 656.334 803.462 655.267 803.995 653.4C804.529 651.667 808.795 642.2 813.595 632.334C819.329 620.067 821.862 613.4 821.329 611.4C820.529 608.067 817.462 607.267 815.729 609.934Z" fill="white"/>
<path d="M290.662 613.266C278.395 619.799 268.662 631.266 268.662 638.866C268.662 641.666 269.329 644.466 270.129 645.266C271.329 646.466 270.662 648.466 267.595 653.266C261.595 662.599 261.062 666.466 264.795 670.466C270.929 676.999 281.729 672.866 295.862 658.599C307.595 646.866 312.662 637.399 312.662 627.399C312.662 619.666 310.129 613.132 306.662 611.799C302.795 610.332 294.795 610.999 290.662 613.266ZM306.662 620.599C308.662 628.466 298.795 646.599 287.062 656.866C279.462 663.532 271.862 667.932 270.529 666.599C269.995 666.199 271.062 662.866 272.795 659.399C275.729 653.399 276.395 652.999 281.729 652.599C288.262 652.066 288.929 650.599 283.329 648.866L279.195 647.666L286.662 637.399C290.662 631.799 293.995 626.599 293.995 625.799C293.995 622.066 289.462 625.132 282.395 633.532C278.129 638.599 274.395 642.599 274.129 642.332C273.195 641.266 279.329 632.866 284.929 627.532C295.062 617.666 305.195 614.599 306.662 620.599ZM284.662 622.066C284.662 622.332 283.329 623.666 281.729 625.132L278.662 627.666L281.195 624.599C283.595 621.799 284.662 620.999 284.662 622.066ZM296.662 654.066C296.662 654.332 295.062 655.932 293.062 657.799L289.329 660.999L292.529 657.266C295.595 653.932 296.662 652.999 296.662 654.066Z" fill="white"/>
<path d="M152.929 615.666C146.529 618.466 139.729 624.066 136.529 629.266C134.262 632.866 133.862 634.999 134.529 639.133C135.195 643.266 134.795 645.399 132.795 648.199C128.662 653.933 127.995 658.733 130.662 661.666C131.995 663.133 134.262 664.333 135.729 664.333C142.129 664.333 154.929 655.133 162.395 645.133C164.529 642.066 165.995 640.866 165.462 642.333C163.062 648.999 160.662 670.866 161.995 674.199C162.662 676.066 163.729 677.666 164.262 677.666C167.595 677.533 176.662 665.799 192.529 641.266C198.662 631.933 203.862 624.333 204.262 624.333C204.529 624.333 204.529 624.866 203.995 625.533C202.395 628.199 206.129 628.199 217.462 625.666C223.995 624.199 229.995 622.999 230.662 622.999C231.462 622.999 226.662 625.933 219.995 629.399C202.929 638.466 196.662 642.866 196.662 645.933C196.662 650.466 199.995 650.466 217.995 646.066C219.862 645.666 214.795 649.266 206.662 654.199C198.662 659.133 191.595 663.533 190.929 664.199C189.462 665.666 192.129 670.999 194.395 670.999C195.329 671.133 203.595 669.399 212.929 667.399C226.129 664.466 229.995 663.133 230.529 661.266C231.729 656.333 225.195 655.266 211.462 658.199C203.195 659.933 203.062 659.933 206.129 657.533C207.862 656.199 215.729 651.799 223.462 647.666C236.529 640.999 240.929 636.999 238.262 634.466C236.795 632.999 226.929 633.666 219.729 635.799C215.729 636.999 212.262 637.666 211.862 637.399C211.062 636.599 234.795 623.666 241.195 621.533C246.795 619.533 248.795 616.733 245.862 614.866C243.062 613.133 231.462 613.399 219.862 615.666C210.662 617.399 209.329 617.399 208.262 615.666C204.929 609.533 198.662 615.799 182.129 642.066C176.795 650.733 172.129 657.533 171.862 657.399C171.729 657.133 171.995 654.599 172.662 651.666C174.529 642.999 176.662 620.733 175.862 618.466C174.795 615.799 170.262 614.466 168.129 616.199C166.795 617.266 165.862 617.133 164.662 615.666C162.662 613.133 158.662 613.133 152.929 615.666ZM234.395 618.599C233.462 618.866 231.595 618.866 230.395 618.599C229.062 618.199 229.862 617.933 231.995 617.933C234.262 617.933 235.195 618.199 234.395 618.599ZM164.129 622.333C165.329 627.133 158.929 639.933 151.595 647.399C144.795 654.333 137.062 659.799 135.729 658.466C135.329 658.066 135.995 655.266 137.329 652.466C139.329 647.933 140.395 646.999 144.529 646.599C148.662 646.199 148.929 645.933 146.395 644.999C144.662 644.466 143.329 643.533 143.329 642.999C143.329 642.466 145.729 638.733 148.795 634.599C156.529 623.666 153.995 621.933 144.929 631.799C137.729 639.666 136.929 639.533 143.062 631.133C146.795 626.199 157.195 618.999 160.929 618.999C162.262 618.999 163.595 620.333 164.129 622.333ZM225.595 619.799C225.195 620.199 223.995 620.333 223.062 619.933C221.995 619.533 222.395 619.133 223.862 619.133C225.329 618.999 226.129 619.399 225.595 619.799ZM218.929 621.133C218.529 621.533 217.329 621.666 216.395 621.266C215.329 620.866 215.729 620.466 217.195 620.466C218.662 620.333 219.462 620.733 218.929 621.133ZM213.595 622.466C213.195 622.866 211.995 622.999 211.062 622.599C209.995 622.199 210.395 621.799 211.862 621.799C213.329 621.666 214.129 622.066 213.595 622.466ZM230.929 638.466C230.529 638.866 229.329 638.999 228.395 638.599C227.329 638.199 227.729 637.799 229.195 637.799C230.662 637.666 231.462 638.066 230.929 638.466ZM225.595 639.799C225.195 640.199 223.995 640.333 223.062 639.933C221.995 639.533 222.395 639.133 223.862 639.133C225.329 638.999 226.129 639.399 225.595 639.799ZM220.262 641.133C219.862 641.533 218.662 641.666 217.729 641.266C216.662 640.866 217.062 640.466 218.529 640.466C219.995 640.333 220.795 640.733 220.262 641.133ZM210.929 643.799C210.529 644.199 209.329 644.333 208.395 643.933C207.329 643.533 207.729 643.133 209.195 643.133C210.662 642.999 211.462 643.399 210.929 643.799ZM222.929 661.133C222.529 661.533 221.329 661.666 220.395 661.266C219.329 660.866 219.729 660.466 221.195 660.466C222.662 660.333 223.462 660.733 222.929 661.133ZM216.262 662.466C215.862 662.866 214.662 662.999 213.729 662.599C212.662 662.199 213.062 661.799 214.529 661.799C215.995 661.666 216.795 662.066 216.262 662.466ZM210.929 663.799C210.529 664.199 209.329 664.333 208.395 663.933C207.329 663.533 207.729 663.133 209.195 663.133C210.662 662.999 211.462 663.399 210.929 663.799ZM205.595 665.133C205.195 665.533 203.995 665.666 203.062 665.266C201.995 664.866 202.395 664.466 203.862 664.466C205.329 664.333 206.129 664.733 205.595 665.133Z" fill="white"/>
</svg>
