<svg width="215" height="46" viewBox="0 0 215 46" fill="none" xmlns="http://www.w3.org/2000/svg">
<path d="M51.9987 1.00977C52.2532 3.65093 52.5077 6.14292 52.0338 8.64369C51.6916 10.46 50.7001 11.8991 49.2172 12.9433C47.278 14.3033 45.2861 15.602 43.268 16.848C38.8894 19.5769 34.4846 22.2707 30.0797 24.9557C27.342 26.6229 24.3938 27.7461 21.1822 28.0444C18.0848 28.334 15.0751 27.825 12.1795 26.7106C9.39792 25.6401 6.81818 24.1923 4.44026 22.4111C2.00969 20.586 0.439022 18.208 0.149459 15.0667C0.00906512 13.5838 -0.105003 12.1272 0.158236 10.6531C0.368827 9.4685 0.693487 9.31933 1.72012 10.0125C3.08896 10.9426 4.40516 11.9342 5.774 12.8643C8.62575 14.7947 11.381 16.8567 14.4872 18.3747C15.8999 19.0679 17.4004 19.454 18.9447 19.5681C20.9278 19.7173 22.7705 19.1294 24.4376 18.094C28.123 15.8125 31.7995 13.5136 35.4498 11.1796C39.5388 8.56472 43.5751 5.87967 47.6641 3.27361C48.8223 2.53654 50.0771 1.94864 51.288 1.29932C51.4723 1.18525 51.6741 1.13261 51.9987 1.00977Z" fill="white"/>
<path d="M0.42589 26.8093C1.32968 27.3621 2.06674 27.7832 2.76871 28.2571C5.87493 30.3542 8.97237 32.4601 12.061 34.5836C13.93 35.8647 15.9219 36.8474 18.2033 37.0931C20.2039 37.3125 22.108 36.8562 23.8892 35.9524C27.9782 33.8816 31.8478 31.451 35.6472 28.8888C39.7187 26.1336 43.7725 23.3521 47.8615 20.6144C48.9145 19.9124 50.0552 19.3245 51.1608 18.7015C51.424 18.5523 51.7136 18.4646 52.0997 18.3066C52.1699 18.6576 52.2664 18.9033 52.2664 19.1578C52.2225 21.3251 52.205 23.4837 52.0821 25.6422C51.968 27.6077 51.0818 29.1872 49.362 30.2489C46.1768 32.2144 42.9741 34.1712 39.8064 36.1806C37.1389 37.8828 34.5153 39.6553 31.8829 41.4102C28.8381 43.4459 25.5301 44.8674 21.8974 45.35C19.5019 45.6659 17.0977 45.4641 14.7285 44.9289C11.052 44.104 7.65618 42.6475 4.74301 40.2257C3.50578 39.199 2.40895 37.9969 1.356 36.7772C0.50486 35.7857 0.16265 34.5397 0.197748 33.2235C0.267945 31.1702 0.346919 29.1082 0.42589 26.8093Z" fill="white"/>
<path d="M82.6342 27.5L82.6061 13.1839L75.5042 25.114H74.2129L67.111 13.2681V27.5H64.4162V7.85042H66.718L74.9147 21.6613L82.9991 7.85042H85.3009L85.329 27.5H82.6342ZM100.096 27.7246C98.1127 27.7246 96.3255 27.2941 94.7349 26.4333C93.1442 25.5538 91.8904 24.3467 90.9734 22.8122C90.0751 21.2776 89.626 19.5653 89.626 17.6752C89.626 15.7851 90.0751 14.0728 90.9734 12.5382C91.8904 11.0037 93.1442 9.80602 94.7349 8.94519C96.3255 8.06563 98.1127 7.62586 100.096 7.62586C102.061 7.62586 103.839 8.06563 105.43 8.94519C107.021 9.80602 108.265 11.0037 109.163 12.5382C110.062 14.0541 110.511 15.7664 110.511 17.6752C110.511 19.584 110.062 21.3057 109.163 22.8402C108.265 24.3561 107.021 25.5538 105.43 26.4333C103.839 27.2941 102.061 27.7246 100.096 27.7246ZM100.096 25.2263C101.537 25.2263 102.829 24.8988 103.97 24.2438C105.13 23.5888 106.038 22.6905 106.693 21.549C107.367 20.3887 107.704 19.0975 107.704 17.6752C107.704 16.253 107.367 14.9711 106.693 13.8295C106.038 12.6692 105.13 11.7616 103.97 11.1066C102.829 10.4517 101.537 10.1242 100.096 10.1242C98.6554 10.1242 97.3455 10.4517 96.1665 11.1066C95.0062 11.7616 94.0892 12.6692 93.4155 13.8295C92.7606 14.9711 92.4331 16.253 92.4331 17.6752C92.4331 19.0975 92.7606 20.3887 93.4155 21.549C94.0892 22.6905 95.0062 23.5888 96.1665 24.2438C97.3455 24.8988 98.6554 25.2263 100.096 25.2263ZM126.44 27.5L120.545 19.3875L114.734 27.5H111.506L118.888 17.4226L111.955 7.85042H115.155L120.657 15.4015L126.103 7.85042H129.162L122.229 17.3384L129.668 27.5H126.44Z" fill="white"/>
<path d="M152.942 12.6225L147.384 27.5H144.802L140.507 16.2155L136.156 27.5H133.573L128.043 12.6225H130.598L134.921 24.4684L139.412 12.6225H141.686L146.093 24.5245L150.528 12.6225H152.942ZM160.628 12.4821C162.687 12.4821 164.259 12.9874 165.344 13.9979C166.448 15.0085 167 16.515 167 18.5173V27.5H164.446V25.535C163.997 26.2275 163.351 26.7608 162.509 27.1351C161.686 27.4906 160.703 27.6684 159.562 27.6684C157.896 27.6684 156.558 27.2661 155.548 26.4614C154.556 25.6567 154.06 24.5993 154.06 23.2894C154.06 21.9794 154.537 20.9314 155.491 20.1454C156.446 19.3407 157.962 18.9384 160.039 18.9384H164.306V18.4051C164.306 17.2448 163.969 16.3559 163.295 15.7383C162.621 15.1208 161.63 14.812 160.32 14.812C159.44 14.812 158.579 14.9617 157.737 15.2611C156.895 15.5418 156.184 15.9255 155.604 16.412L154.481 14.3909C155.248 13.7734 156.165 13.3055 157.232 12.9874C158.299 12.6505 159.431 12.4821 160.628 12.4821ZM160.011 25.5912C161.04 25.5912 161.929 25.3666 162.678 24.9175C163.426 24.4496 163.969 23.7947 164.306 22.9525V20.8753H160.151C157.868 20.8753 156.727 21.6426 156.727 23.1771C156.727 23.9256 157.017 24.5151 157.597 24.9456C158.177 25.376 158.982 25.5912 160.011 25.5912ZM171.987 6.67145H174.682V27.5H171.987V6.67145ZM179.828 6.67145H182.522V27.5H179.828V6.67145ZM201.114 20.1454C201.114 20.3513 201.095 20.6226 201.057 20.9595H188.987C189.155 22.2695 189.726 23.3268 190.699 24.1315C191.691 24.9175 192.917 25.3105 194.377 25.3105C196.154 25.3105 197.586 24.7116 198.671 23.5139L200.159 25.2543C199.485 26.0403 198.643 26.6392 197.633 27.0509C196.641 27.4626 195.527 27.6684 194.292 27.6684C192.72 27.6684 191.326 27.3503 190.11 26.714C188.893 26.059 187.948 25.1514 187.275 23.9911C186.62 22.8309 186.292 21.5209 186.292 20.0612C186.292 18.6203 186.61 17.3196 187.247 16.1594C187.902 14.9991 188.79 14.1009 189.913 13.4646C191.055 12.8096 192.337 12.4821 193.759 12.4821C195.181 12.4821 196.444 12.8096 197.549 13.4646C198.671 14.1009 199.542 14.9991 200.159 16.1594C200.795 17.3196 201.114 18.6483 201.114 20.1454ZM193.759 14.7558C192.468 14.7558 191.382 15.1488 190.503 15.9348C189.642 16.7208 189.137 17.7501 188.987 19.0226H198.531C198.381 17.7688 197.867 16.7489 196.987 15.9629C196.126 15.1582 195.05 14.7558 193.759 14.7558ZM213.221 26.6298C212.828 26.9667 212.341 27.2286 211.761 27.4158C211.181 27.5842 210.582 27.6684 209.964 27.6684C208.467 27.6684 207.307 27.2661 206.484 26.4614C205.66 25.6567 205.249 24.5058 205.249 23.0087V14.8401H202.722V12.6225H205.249V9.36625H207.943V12.6225H212.21V14.8401H207.943V22.8964C207.943 23.7011 208.14 24.3186 208.533 24.7491C208.944 25.1795 209.525 25.3947 210.273 25.3947C211.097 25.3947 211.798 25.1608 212.378 24.6929L213.221 26.6298Z" fill="white"/>
</svg>
